<?xml version="1.0" standalone="no"?><svg xmlns="http://www.w3.org/2000/svg" viewBox="0 0 1440 320"><path fill="#7f529f" fill-opacity="1" d="M0,224L30,234.7C60,245,120,267,180,245.3C240,224,300,160,360,144C420,128,480,160,540,176C600,192,660,192,720,165.3C780,139,840,85,900,69.3C960,53,1020,75,1080,122.7C1140,171,1200,245,1260,245.3C1320,245,1380,171,1410,133.3L1440,96L1440,320L1410,320C1380,320,1320,320,1260,320C1200,320,1140,320,1080,320C1020,320,960,320,900,320C840,320,780,320,720,320C660,320,600,320,540,320C480,320,420,320,360,320C300,320,240,320,180,320C120,320,60,320,30,320L0,320Z"></path></svg>